<svg width="883" height="890" viewBox="0 0 883 890" fill="none" xmlns="http://www.w3.org/2000/svg">
    <defs>
        <linearGradient id="solanaGradient" x1="0%" y1="0%" x2="100%" y2="100%">
            <stop offset="0%" style="stop-color:#9945FF;stop-opacity:1" />
            <stop offset="100%" style="stop-color:#14F195;stop-opacity:1" />
        </linearGradient>
    </defs>
    <path
        d="M421.806 1.47428C484.899 -6.39239 551.579 17.5676 594.112 65.101C609.326 82.3676 621.579 102.754 627.379 125.128C585.232 166.728 543.192 208.434 500.846 249.821C498.752 252.288 495.472 252.461 492.486 252.421C453.366 252.234 414.232 252.448 375.112 252.301C367.632 252.341 360.032 254.208 353.806 258.461C347.779 262.621 342.926 268.181 337.606 273.154C291.766 318.888 245.406 364.101 199.432 409.701C196.392 412.568 193.739 415.994 192.566 420.074C188.672 430.661 193.952 443.234 203.366 449.048C237.779 471.741 277.659 487.008 318.952 489.768C345.659 492.594 372.619 489.434 398.712 483.634C402.752 492.288 408.432 500.021 413.606 508.021C442.926 551.408 473.899 593.634 504.672 635.994C532.632 674.261 560.566 712.554 588.446 750.874C588.619 754.981 584.859 758.048 582.979 761.448C560.246 792.008 534.312 820.048 507.112 846.648C492.072 860.581 477.886 876.381 459.006 885.154C442.206 892.741 423.179 888.981 406.352 883.541C369.539 871.114 336.966 847.741 311.152 818.928C293.419 824.288 274.752 824.714 256.392 824.074C206.526 820.754 158.592 794.861 128.726 754.754C112.312 732.861 101.099 706.914 97.2323 679.781C94.3656 661.754 95.4456 643.408 97.8456 625.421C85.5523 617.474 73.1656 609.421 62.579 599.208C29.499 569.168 8.16563 527.021 1.97897 482.888C-2.55437 449.114 0.472295 413.941 13.4323 382.248C29.5256 341.074 60.1256 306.194 98.0056 283.634C97.299 273.541 95.179 263.554 95.2856 253.394C95.0856 222.554 104.059 191.634 121.326 166.034C144.272 130.968 181.792 105.528 223.112 98.0476C239.806 94.741 257.032 95.741 273.579 99.4343C304.446 46.3543 360.926 9.16762 421.806 1.47428Z"
        fill="url(#solanaGradient)" />
    <path
        d="M631.659 204.141C632.033 204.154 632.793 204.194 633.166 204.221C648.833 219.794 664.206 235.661 679.712 251.394C698.966 271.754 719.339 291.008 738.593 311.354C756.259 330.074 774.753 347.968 792.499 366.608C821.606 396.661 850.299 427.128 879.432 457.141C883.792 462.741 882.299 470.914 880.219 477.181C864.499 513.341 848.446 549.368 832.753 585.554C828.379 595.594 818.766 604.554 807.179 603.928C728.499 604.194 649.819 603.994 571.139 604.061C560.286 604.554 550.459 597.861 544.313 589.341C519.393 556.328 495.073 522.861 471.486 488.874C466.646 481.248 460.312 473.434 460.459 463.941C462.486 449.928 471.233 437.114 469.726 422.581C468.326 413.754 461.566 405.941 452.846 403.688C446.073 401.394 438.739 403.608 432.766 407.021C411.886 419.941 387.566 426.474 363.273 428.781C333.646 431.394 303.486 427.368 275.659 416.821C276.953 414.954 278.446 413.234 280.126 411.688C310.686 382.261 340.912 352.461 370.792 322.328C376.379 316.368 384.099 312.074 392.406 312.061C430.619 312.061 468.832 312.048 507.046 312.074C512.299 312.154 517.473 310.568 522.166 308.314C529.793 304.328 535.313 297.514 541.486 291.714C571.539 262.528 601.646 233.381 631.659 204.141ZM606.526 336.941C579.486 341.288 559.473 369.354 563.593 396.314C565.259 408.474 570.899 420.154 579.926 428.554C590.793 439.288 606.553 444.714 621.726 442.994C638.579 441.554 654.099 431.128 662.513 416.568C668.699 405.701 671.419 392.528 668.673 380.208C665.619 362.848 653.432 347.394 637.206 340.474C627.619 336.421 616.792 334.848 606.526 336.941Z"
        fill="url(#solanaGradient)" />
</svg>
